# xmcd
# 
# Track frame offsets:
#     150
#     18341
#     34548
#     49765
#     65998
#     82475
#     100288
#     117968
#     131395
#     145105
#     159675
#     176792
#     196682
#     208985
# 
# Disc length: 2961
# 
# Revision: 0
# Processed by: cddbd v1.5.2PL0 Copyright (c) Steve Scherf et al.
# Submitted via: fre:ac v1.0.17
# 
DISCID=ce0b8f0e
DTITLE=Pam Tillis - Recollection
DYEAR=2009
DGENRE=Country
TTITLE0=Maybe It Was Memphis
TTITLE1=Don't Tell Me What To Do
TTITLE2=All the Good Ones Are Gone
TTITLE3=Let That Pony Run
TTITLE4=Deep Down
TTITLE5=Blue Rose Is
TTITLE6=Spilled Perfume
TTITLE7=Shake the Sugar Tree
TTITLE8=Mi Vida Loca
TTITLE9=Cleopatra, Queen of Denial
TTITLE10=In Between Dances
TTITLE11=The River and the Highway
TTITLE12=When You Walk Into The Room
TTITLE13=I Said A Prayer
EXTD=
EXTT0=
EXTT1=
EXTT2=
EXTT3=
EXTT4=
EXTT5=
EXTT6=
EXTT7=
EXTT8=
EXTT9=
EXTT10=
EXTT11=
EXTT12=
EXTT13=
PLAYORDER=
